<svg xmlns="http://www.w3.org/2000/svg" width="94.443" height="30.325" viewBox="0 0 94.443 30.325">
  <path id="Path_39" data-name="Path 39" d="M12.327,32.806l-.016-.01a.466.466,0,0,1-.222-.3l-.749-3.2a.47.47,0,0,1,.05-.341l.569-.985a.466.466,0,0,1,.321-.226l1.03-.191-.246-1.04a.469.469,0,0,1,.307-.553l1.1-.369-.213-.932a.469.469,0,0,1,.3-.547l1.007-.354-.386-1.034a.47.47,0,0,1,.033-.4l1.408-2.438q-.123-.19-.23-.385a5.816,5.816,0,0,1-2.784-1.074L4.622,23.409a.466.466,0,0,1-.3.053l-3.153-.515a.443.443,0,0,1-.16-.057A.469.469,0,0,1,.8,22.342l1-3.132a.467.467,0,0,1,.22-.267l1-.551a.469.469,0,0,1,.391-.028l.977.368.33-1.021a.469.469,0,0,1,.547-.313L6.4,17.65l.3-.908a.469.469,0,0,1,.541-.311l1.041.217.2-1.086a.473.473,0,0,1,.233-.323l2.462-1.364A5.881,5.881,0,0,1,16.9,7.782a6.92,6.92,0,1,1,10.371,7.549,5.878,5.878,0,0,1-6.217,7.209l-5.137,8.9a.471.471,0,0,1-.231.2l-2.967,1.187a.466.466,0,0,1-.392-.02Zm5.23-13.216a.467.467,0,0,1,.03.511l-1.446,2.5.475,1.273a.468.468,0,0,1-.284.606l-1.062.373.215.94a.467.467,0,0,1-.308.548l-1.1.369.261,1.1a.468.468,0,0,1-.372.568l-1.3.241-.368.636.583,2.49,2.309-.924,5.194-9,.014-.027,0,0a.468.468,0,0,1,.517-.218,4.947,4.947,0,0,0,5.506-5.8,6.9,6.9,0,0,1-2.05.553,2.291,2.291,0,1,1,.175-.971,5.949,5.949,0,0,0,1.613-.5,4.946,4.946,0,0,0-4.2-3.121.466.466,0,0,1-.143-.009A4.949,4.949,0,0,0,17.087,18.8a.47.47,0,0,1,.055.111A4.964,4.964,0,0,0,17.557,19.59Zm-14.921.084-.78,2.435,2.455.4,9.113-5.048a.464.464,0,0,1,.249-.059A.471.471,0,0,1,14,17.55a4.9,4.9,0,0,0,1.956.932A5.878,5.878,0,0,1,21.1,10.824a4.948,4.948,0,0,0-3.717-2.092.468.468,0,0,1-.262-.011A4.944,4.944,0,0,0,12.132,14.1a.469.469,0,0,1-.239.451l-2.524,1.4-.252,1.339a.469.469,0,0,1-.556.372l-1.1-.229-.3.913a.469.469,0,0,1-.546.31l-1.131-.251-.35,1.083a.469.469,0,0,1-.612.3l-1.237-.466Zm18.45-4.9a1.354,1.354,0,1,0,2.474,1.051.47.47,0,0,1,.014-.066c0-.011.007-.022.011-.032a1.354,1.354,0,0,0-2.5-.952Zm3.485-3.134a5.864,5.864,0,0,1,2.4,2.763,5.979,5.979,0,1,0-9.113-6.57,5.878,5.878,0,0,1,4.35,2.988l.012.022A5.864,5.864,0,0,1,24.571,11.642ZM51.3,21.1a3.6,3.6,0,0,1-1.6-1.638,6.686,6.686,0,0,1-.612-2.8q-.018-.81-.018-1.512t.018-1.512a6.276,6.276,0,0,1,.648-2.781,3.829,3.829,0,0,1,1.647-1.647,5.86,5.86,0,0,1,4.914,0,3.877,3.877,0,0,1,1.656,1.647,6.032,6.032,0,0,1,.639,2.781q.036.81.036,1.512t-.036,1.512a6.412,6.412,0,0,1-.6,2.8A3.635,3.635,0,0,1,56.373,21.1a6.331,6.331,0,0,1-5.076,0Zm.729-10.944a2.981,2.981,0,0,0-1.278,1.287,5.228,5.228,0,0,0-.531,2.286q-.018.81-.018,1.422t.018,1.422a4.2,4.2,0,0,0,1.08,3.042,3.921,3.921,0,0,0,5.085,0,4.216,4.216,0,0,0,1.071-3.042q.036-.81.036-1.422t-.036-1.422a5.056,5.056,0,0,0-.513-2.286,2.971,2.971,0,0,0-1.278-1.287,4.283,4.283,0,0,0-3.636,0ZM90,21.448a.372.372,0,0,1-.4-.4v-4.41l-4.392-7.2a.785.785,0,0,0-.045-.108.277.277,0,0,1-.027-.126.369.369,0,0,1,.36-.36h.36a.461.461,0,0,1,.234.063.48.48,0,0,1,.18.207l3.906,6.354,3.906-6.354a.66.66,0,0,1,.189-.207.417.417,0,0,1,.225-.063h.36a.369.369,0,0,1,.36.36.38.38,0,0,1-.018.126.433.433,0,0,1-.054.108l-4.392,7.2v4.41a.388.388,0,0,1-.108.288.413.413,0,0,1-.306.108Zm-14.076,0a.372.372,0,0,1-.4-.4V9.262a.415.415,0,0,1,.108-.306.39.39,0,0,1,.288-.108h7.02a.376.376,0,0,1,.414.414v.27a.388.388,0,0,1-.108.288.413.413,0,0,1-.306.108H76.659v4.59h5.886a.376.376,0,0,1,.414.414v.27a.388.388,0,0,1-.108.288.413.413,0,0,1-.306.108H76.659v4.77h6.426a.376.376,0,0,1,.414.414v.27a.388.388,0,0,1-.108.288.413.413,0,0,1-.306.108Zm-4.518,0a.372.372,0,0,1-.4-.4V11.3l-3.438,6.768a.557.557,0,0,1-.207.27.619.619,0,0,1-.351.09h-.4a.577.577,0,0,1-.342-.09.712.712,0,0,1-.216-.27L62.619,11.3v9.756a.372.372,0,0,1-.4.4H61.9a.422.422,0,0,1-.3-.108.374.374,0,0,1-.117-.288V9.262a.4.4,0,0,1,.117-.306.422.422,0,0,1,.3-.108h.45a.367.367,0,0,1,.27.09.431.431,0,0,1,.108.144l4.086,7.956,4.1-7.956a1.452,1.452,0,0,1,.117-.144.338.338,0,0,1,.261-.09h.432a.376.376,0,0,1,.414.414v11.79a.388.388,0,0,1-.108.288.413.413,0,0,1-.306.108Zm-25.956,0a.372.372,0,0,1-.4-.4V15.6H38.1v5.454A.388.388,0,0,1,38,21.34a.413.413,0,0,1-.306.108h-.324a.372.372,0,0,1-.4-.4V9.262a.415.415,0,0,1,.108-.306.39.39,0,0,1,.288-.108h.324a.376.376,0,0,1,.414.414v5.256h6.948V9.262a.415.415,0,0,1,.108-.306.39.39,0,0,1,.288-.108h.324a.376.376,0,0,1,.414.414v11.79a.388.388,0,0,1-.108.288.413.413,0,0,1-.306.108Z" transform="translate(-0.774 -2.534)" fill="#4288e5"/>
</svg>
